<svg preserveAspectRatio="none" width="100%" height="100%" overflow="visible" style="display: block;" viewBox="0 0 13.3333 14.6667" fill="none" xmlns="http://www.w3.org/2000/svg">
<path id="Icon" d="M12.6667 2.66667C12.6667 3.77124 9.98038 4.66667 6.66667 4.66667C3.35296 4.66667 0.666667 3.77124 0.666667 2.66667M12.6667 2.66667C12.6667 1.5621 9.98038 0.666667 6.66667 0.666667C3.35296 0.666667 0.666667 1.5621 0.666667 2.66667M12.6667 2.66667V12C12.6667 13.1067 10 14 6.66667 14C3.33333 14 0.666667 13.1067 0.666667 12V2.66667M12.6667 5.81348C12.6667 6.92014 10 7.81348 6.66667 7.81348C3.33333 7.81348 0.666667 6.92014 0.666667 5.81348M12.6667 8.96C12.6667 10.0667 10 10.96 6.66667 10.96C3.33333 10.96 0.666667 10.0667 0.666667 8.96" stroke="var(--stroke-0, #0D0D0D)" stroke-width="1.33333" stroke-linecap="round" stroke-linejoin="round"/>
</svg>
