<svg preserveAspectRatio="none" width="100%" height="100%" overflow="visible" style="display: block;" viewBox="0 0 14.7442 14.7442" fill="none" xmlns="http://www.w3.org/2000/svg">
<path id="Icon" d="M6.665 2.07921H3.865C2.7449 2.07921 2.18484 2.07921 1.75702 2.2972C1.3807 2.48895 1.07473 2.79491 0.882988 3.17123C0.665001 3.59906 0.665001 4.15911 0.665001 5.27921V10.8792C0.665001 11.9993 0.665001 12.5594 0.882988 12.9872C1.07473 13.3635 1.3807 13.6695 1.75702 13.8612C2.18484 14.0792 2.7449 14.0792 3.865 14.0792H9.465C10.5851 14.0792 11.1452 14.0792 11.573 13.8612C11.9493 13.6695 12.2553 13.3635 12.447 12.9872C12.665 12.5594 12.665 11.9993 12.665 10.8792V8.07921M4.66498 10.0792H5.78135C6.10747 10.0792 6.27053 10.0792 6.42398 10.0424C6.56003 10.0097 6.69008 9.95584 6.80938 9.88274C6.94394 9.80028 7.05924 9.68498 7.28984 9.45438L13.665 3.07921C14.2173 2.52693 14.2173 1.6315 13.665 1.07921C13.1127 0.526929 12.2173 0.526929 11.665 1.07921L5.28982 7.45438C5.05922 7.68498 4.94392 7.80028 4.86146 7.93483C4.78836 8.05413 4.73449 8.18419 4.70182 8.32024C4.66498 8.47369 4.66498 8.63675 4.66498 8.96287V10.0792Z" stroke="var(--stroke-0, #0D0D0D)" stroke-width="1.33" stroke-linecap="round" stroke-linejoin="round"/>
</svg>
