<svg preserveAspectRatio="none" width="100%" height="100%" overflow="visible" style="display: block;" viewBox="0 0 16 16" fill="none" xmlns="http://www.w3.org/2000/svg">
<g id="face-id-square" clip-path="url(#clip0_0_1349)">
<path id="Icon" d="M4.65 5.02222V6.13889M11.35 5.02222V6.13889M7.25556 8.44674C7.85111 8.44674 8.37222 7.92563 8.37222 7.33007V5.02222M10.3824 10.3822C9.04237 11.7222 6.88348 11.7222 5.54348 10.3822M1.3 4.87333L1.3 11.1267C1.3 12.3774 1.3 13.0028 1.54342 13.4806C1.75754 13.9008 2.09919 14.2425 2.51942 14.4566C2.99716 14.7 3.62255 14.7 4.87333 14.7H11.1267C12.3775 14.7 13.0028 14.7 13.4806 14.4566C13.9008 14.2425 14.2425 13.9008 14.4566 13.4806C14.7 13.0028 14.7 12.3774 14.7 11.1267V4.87333C14.7 3.62255 14.7 2.99716 14.4566 2.51942C14.2425 2.09919 13.9008 1.75754 13.4806 1.54342C13.0028 1.3 12.3775 1.3 11.1267 1.3L4.87333 1.3C3.62255 1.3 2.99716 1.3 2.51942 1.54342C2.09919 1.75754 1.75754 2.09919 1.54342 2.51942C1.3 2.99716 1.3 3.62255 1.3 4.87333Z" stroke="var(--stroke-0, #0D0D0D)" stroke-width="1.33333" stroke-linecap="round" stroke-linejoin="round"/>
</g>
<defs>
<clipPath id="clip0_0_1349">
<rect width="16" height="16" fill="white"/>
</clipPath>
</defs>
</svg>
