<svg preserveAspectRatio="none" width="100%" height="100%" overflow="visible" style="display: block;" viewBox="0 0 18 18" fill="none" xmlns="http://www.w3.org/2000/svg">
<g id="graduation-hat-02">
<path id="Icon" d="M12.7502 10.875V8.62082C12.7502 8.48621 12.7502 8.41891 12.7297 8.35949C12.7116 8.30694 12.682 8.25908 12.6431 8.21937C12.5991 8.17447 12.5389 8.14437 12.4185 8.08417L9.00018 6.375M3.00018 7.125V12.23C3.00018 12.5089 3.00018 12.6484 3.0437 12.7705C3.08216 12.8784 3.14486 12.9761 3.22697 13.0561C3.31984 13.1465 3.44664 13.2046 3.7002 13.3208L8.5002 15.5208C8.68412 15.6051 8.77609 15.6473 8.87189 15.6639C8.95678 15.6787 9.04358 15.6787 9.12848 15.6639C9.22428 15.6473 9.31624 15.6051 9.50017 15.5208L14.3002 13.3208C14.5537 13.2046 14.6805 13.1465 14.7734 13.0561C14.8555 12.9761 14.9182 12.8784 14.9567 12.7705C15.0002 12.6484 15.0002 12.5089 15.0002 12.23V7.125M1.50018 6.375L8.73186 2.75917C8.83024 2.70997 8.87943 2.68538 8.93103 2.6757C8.97673 2.66712 9.02363 2.66712 9.06933 2.6757C9.12093 2.68538 9.17013 2.70997 9.26851 2.75917L16.5002 6.375L9.26851 9.99084C9.17013 10.04 9.12093 10.0646 9.06933 10.0743C9.02363 10.0829 8.97673 10.0829 8.93103 10.0743C8.87943 10.0646 8.83024 10.04 8.73186 9.99084L1.50018 6.375Z" stroke="var(--stroke-0, #0D0D0D)" stroke-width="1.33" stroke-linecap="round" stroke-linejoin="round"/>
</g>
</svg>
