<svg preserveAspectRatio="none" width="100%" height="100%" overflow="visible" style="display: block;" viewBox="0 0 13.3335 13.8221" fill="none" xmlns="http://www.w3.org/2000/svg">
<path id="Icon" d="M4.0841 8.48876C4.38013 9.63891 5.4242 10.4888 6.66676 10.4888C7.90932 10.4888 8.95339 9.63891 9.24941 8.48876M6.01189 0.998102L1.49035 4.51485C1.18811 4.74993 1.03698 4.86747 0.928111 5.01467C0.83167 5.14507 0.759827 5.29196 0.716111 5.44814C0.66676 5.62445 0.66676 5.8159 0.66676 6.1988V11.0221C0.66676 11.7688 0.66676 12.1422 0.812084 12.4274C0.939915 12.6783 1.14389 12.8823 1.39477 13.0101C1.67999 13.1554 2.05336 13.1554 2.80009 13.1554H10.5334C11.2802 13.1554 11.6535 13.1554 11.9387 13.0101C12.1896 12.8823 12.3936 12.6783 12.5214 12.4274C12.6668 12.1422 12.6668 11.7688 12.6668 11.0221V6.1988C12.6668 5.8159 12.6668 5.62445 12.6174 5.44814C12.5737 5.29196 12.5018 5.14507 12.4054 5.01467C12.2965 4.86747 12.1454 4.74993 11.8432 4.51485L7.32163 0.998102C7.08741 0.815934 6.9703 0.724849 6.84099 0.689837C6.72689 0.658943 6.60663 0.658943 6.49253 0.689837C6.36322 0.724849 6.24611 0.815933 6.01189 0.998102Z" stroke="var(--stroke-0, #0D0D0D)" stroke-width="1.33333" stroke-linecap="round" stroke-linejoin="round"/>
</svg>
