<svg preserveAspectRatio="none" width="100%" height="100%" overflow="visible" style="display: block;" viewBox="0 0 14.83 14.83" fill="none" xmlns="http://www.w3.org/2000/svg">
<path id="Icon" d="M5.165 0.665V14.165M4.265 0.665H10.565C11.8251 0.665 12.4552 0.665 12.9365 0.910236C13.3598 1.12595 13.704 1.47016 13.9198 1.89352C14.165 2.37482 14.165 3.00488 14.165 4.265V10.565C14.165 11.8251 14.165 12.4552 13.9198 12.9365C13.704 13.3598 13.3598 13.704 12.9365 13.9198C12.4552 14.165 11.8251 14.165 10.565 14.165H4.265C3.00488 14.165 2.37482 14.165 1.89352 13.9198C1.47016 13.704 1.12595 13.3598 0.910236 12.9365C0.665 12.4552 0.665 11.8251 0.665 10.565V4.265C0.665 3.00488 0.665 2.37482 0.910236 1.89352C1.12595 1.47016 1.47016 1.12595 1.89352 0.910236C2.37482 0.665 3.00488 0.665 4.265 0.665Z" stroke="var(--stroke-0, #0D0D0D)" stroke-width="1.33" stroke-linecap="round" stroke-linejoin="round"/>
</svg>
