<svg preserveAspectRatio="none" width="100%" height="100%" overflow="visible" style="display: block;" viewBox="0 0 14.6667 14.6667" fill="none" xmlns="http://www.w3.org/2000/svg">
<path id="Icon" d="M7 2.66667H7.2896C9.3211 2.66667 10.3368 2.66667 10.7224 3.03153C11.0557 3.34691 11.2034 3.81152 11.1134 4.26147C11.0093 4.78201 10.1801 5.36857 8.52152 6.54169L5.81181 8.45831C4.15327 9.63143 3.32399 10.218 3.21989 10.7385C3.12991 11.1885 3.27761 11.6531 3.61091 11.9685C3.99649 12.3333 5.01224 12.3333 7.04374 12.3333H7.66667M4.66667 2.66667C4.66667 3.77124 3.77124 4.66667 2.66667 4.66667C1.5621 4.66667 0.666667 3.77124 0.666667 2.66667C0.666667 1.5621 1.5621 0.666667 2.66667 0.666667C3.77124 0.666667 4.66667 1.5621 4.66667 2.66667ZM14 12C14 13.1046 13.1046 14 12 14C10.8954 14 10 13.1046 10 12C10 10.8954 10.8954 10 12 10C13.1046 10 14 10.8954 14 12Z" stroke="var(--stroke-0, #0D0D0D)" stroke-width="1.33333" stroke-linecap="round" stroke-linejoin="round"/>
</svg>
