<svg preserveAspectRatio="none" width="100%" height="100%" overflow="visible" style="display: block;" viewBox="0 0 13.2724 14.6633" fill="none" xmlns="http://www.w3.org/2000/svg">
<g id="Icon">
<path d="M4.89841 12.2457L5.28804 13.122C5.40387 13.3829 5.5929 13.6045 5.83219 13.7601C6.07149 13.9156 6.35078 13.9984 6.63619 13.9983C6.9216 13.9984 7.20089 13.9156 7.44019 13.7601C7.67949 13.6045 7.86851 13.3829 7.98434 13.122L8.37397 12.2457C8.51267 11.9348 8.74597 11.6756 9.04064 11.505C9.33716 11.334 9.68019 11.2611 10.0206 11.2969L10.974 11.3983C11.2578 11.4284 11.5441 11.3754 11.7984 11.2459C12.0527 11.1164 12.264 10.9159 12.4066 10.6687C12.5493 10.4217 12.6174 10.1385 12.6024 9.85359C12.5874 9.56866 12.49 9.2942 12.3221 9.06352L11.7577 8.28796C11.5567 8.00975 11.4493 7.67488 11.451 7.33167C11.4509 6.98939 11.5593 6.6559 11.7606 6.37907L12.3251 5.60352C12.493 5.37284 12.5904 5.09838 12.6053 4.81345C12.6203 4.52852 12.5523 4.24536 12.4095 3.99833C12.2669 3.75116 12.0557 3.55066 11.8014 3.42115C11.5471 3.29164 11.2607 3.23869 10.9769 3.2687L10.0236 3.37019C9.68315 3.40594 9.34012 3.33308 9.0436 3.16204C8.74835 2.9905 8.51498 2.72991 8.37693 2.41759L7.98434 1.5413C7.86851 1.28045 7.67949 1.05881 7.44019 0.903266C7.20089 0.747722 6.9216 0.664954 6.63619 0.665C6.35078 0.664954 6.07149 0.747722 5.83219 0.903266C5.5929 1.05881 5.40387 1.28045 5.28804 1.5413L4.89841 2.41759C4.76037 2.72991 4.527 2.9905 4.23175 3.16204C3.93522 3.33308 3.59219 3.40594 3.25175 3.37019L2.29545 3.2687C2.01167 3.23869 1.72528 3.29164 1.47099 3.42115C1.21671 3.55066 1.00546 3.75116 0.862858 3.99833C0.720072 4.24536 0.652047 4.52852 0.667036 4.81345C0.682026 5.09838 0.779386 5.37284 0.947303 5.60352L1.51175 6.37907C1.71304 6.6559 1.82144 6.98939 1.82138 7.33167C1.82144 7.67394 1.71304 8.00743 1.51175 8.28426L0.947303 9.05982C0.779386 9.2905 0.682026 9.56495 0.667036 9.84989C0.652047 10.1348 0.720072 10.418 0.862858 10.665C1.0056 10.912 1.21688 11.1124 1.47112 11.2419C1.72537 11.3714 2.01169 11.4245 2.29545 11.3946L3.24878 11.2931C3.58923 11.2574 3.93226 11.3303 4.22878 11.5013C4.52514 11.6723 4.75959 11.933 4.89841 12.2457Z" stroke="var(--stroke-0, #0D0D0D)" stroke-width="1.33" stroke-linecap="round" stroke-linejoin="round"/>
<path d="M6.635 9.33167C7.73957 9.33167 8.635 8.43624 8.635 7.33167C8.635 6.2271 7.73957 5.33167 6.635 5.33167C5.53043 5.33167 4.635 6.2271 4.635 7.33167C4.635 8.43624 5.53043 9.33167 6.635 9.33167Z" stroke="var(--stroke-0, #0D0D0D)" stroke-width="1.33" stroke-linecap="round" stroke-linejoin="round"/>
</g>
</svg>
