<svg preserveAspectRatio="none" width="100%" height="100%" overflow="visible" style="display: block;" viewBox="0 0 14.6667 14.6667" fill="none" xmlns="http://www.w3.org/2000/svg">
<path id="Icon" d="M2.66667 7.33333C2.66667 4.756 4.756 2.66667 7.33333 2.66667M10.3333 4.33333L7.33327 7.33333M14 7.33333C14 11.0152 11.0152 14 7.33333 14C3.65144 14 0.666667 11.0152 0.666667 7.33333C0.666667 3.65144 3.65144 0.666667 7.33333 0.666667C11.0152 0.666667 14 3.65144 14 7.33333ZM8 7.33333C8 7.70152 7.70152 8 7.33333 8C6.96514 8 6.66667 7.70152 6.66667 7.33333C6.66667 6.96514 6.96514 6.66667 7.33333 6.66667C7.70152 6.66667 8 6.96514 8 7.33333Z" stroke="var(--stroke-0, #0D0D0D)" stroke-width="1.33333" stroke-linecap="round" stroke-linejoin="round"/>
</svg>
