<svg preserveAspectRatio="none" width="100%" height="100%" overflow="visible" style="display: block;" viewBox="0 0 12.4764 13.3333" fill="none" xmlns="http://www.w3.org/2000/svg">
<g id="Icon">
<path d="M6.23818 8.66667C4.1248 8.66667 2.24538 9.68709 1.04885 11.2706C0.791319 11.6115 0.662556 11.7819 0.666768 12.0122C0.670022 12.1901 0.781756 12.4146 0.92176 12.5245C1.10297 12.6667 1.3541 12.6667 1.85634 12.6667H10.62C11.1223 12.6667 11.3734 12.6667 11.5546 12.5245C11.6946 12.4146 11.8063 12.1901 11.8096 12.0122C11.8138 11.7819 11.685 11.6115 11.4275 11.2706C10.231 9.68709 8.35157 8.66667 6.23818 8.66667Z" stroke="var(--stroke-0, #0D0D0D)" stroke-width="1.33333" stroke-linecap="round" stroke-linejoin="round"/>
<path d="M6.23818 6.66667C7.89504 6.66667 9.23818 5.32352 9.23818 3.66667C9.23818 2.00981 7.89504 0.666667 6.23818 0.666667C4.58133 0.666667 3.23818 2.00981 3.23818 3.66667C3.23818 5.32352 4.58133 6.66667 6.23818 6.66667Z" stroke="var(--stroke-0, #0D0D0D)" stroke-width="1.33333" stroke-linecap="round" stroke-linejoin="round"/>
</g>
</svg>
